<?xml version="1.0" standalone="no"?><!DOCTYPE svg PUBLIC "-//W3C//DTD SVG 1.1//EN" "http://www.w3.org/Graphics/SVG/1.1/DTD/svg11.dtd"><svg t="1525529655623" class="icon" style="" viewBox="0 0 1024 1024" version="1.1" xmlns="http://www.w3.org/2000/svg" p-id="8060" xmlns:xlink="http://www.w3.org/1999/xlink" width="16" height="16"><defs><style type="text/css"></style></defs><path d="M509.672727 444.509091c148.945455 0 232.727273 81.454545 232.727273 81.454545v279.272728s-86.109091 62.836364-244.363636 62.836363-216.436364-62.836364-216.436364-62.836363v-279.272728s76.8-81.454545 228.072727-81.454545" fill="#0093E2" p-id="8061"></path><path d="M498.036364 884.363636c-162.909091 0-225.745455-65.163636-228.072728-67.490909l-4.654545-4.654545V518.981818l4.654545-4.654545s20.945455-23.272727 62.836364-44.218182c37.236364-18.618182 97.745455-41.890909 176.872727-41.890909 81.454545 0 141.963636 23.272727 179.2 41.890909 41.890909 20.945455 62.836364 41.890909 65.163637 44.218182l4.654545 4.654545V814.545455l-6.981818 4.654545c-2.327273 2.327273-93.090909 65.163636-253.672727 65.163636z" fill="#0093E2" p-id="8062"></path><path d="M295.563636 798.254545c6.981818 4.654545 18.618182 16.290909 41.890909 25.6 30.254545 13.963636 81.454545 30.254545 160.581819 30.254546 79.127273 0 139.636364-16.290909 174.545454-30.254546 27.927273-9.309091 44.218182-20.945455 53.527273-25.6V532.945455c-6.981818-6.981818-25.6-20.945455-53.527273-34.909091-34.909091-16.290909-90.763636-37.236364-165.236363-37.236364-74.472727 0-128 20.945455-162.909091 37.236364-25.6 13.963636-44.218182 27.927273-51.2 34.909091v265.30909z" fill="#00BEF5" p-id="8063"></path><path d="M132.654545 442.181818L13.963636 390.981818 532.945455 155.927273 1007.709091 395.636364l-223.418182 90.763636s-107.054545-111.709091-258.327273-111.709091c-146.618182 0-290.909091 111.709091-290.909091 111.709091l-81.454545-34.909091" fill="#0093E2" p-id="8064"></path><path d="M784.290909 502.690909c-4.654545 0-6.981818-2.327273-11.636364-4.654545 0 0-27.927273-27.927273-69.818181-53.527273-39.563636-23.272727-102.4-53.527273-176.872728-53.527273-139.636364 0-279.272727 107.054545-281.6 109.381818-4.654545 2.327273-9.309091 4.654545-16.290909 2.327273l-95.418182-39.563636-128-53.527273c0-4.654545-4.654545-11.636364-4.654545-16.290909 0-6.981818 4.654545-11.636364 9.309091-13.963636L525.963636 139.636364c4.654545 0 9.309091 0 13.963637 2.327272l474.763636 239.709091c4.654545 2.327273 9.309091 9.309091 9.309091 13.963637 0 6.981818-4.654545 11.636364-9.309091 13.963636l-223.418182 93.090909h-6.981818z m-630.690909-69.818182l81.454545 34.909091c13.963636-9.309091 44.218182-30.254545 86.109091-51.2 51.2-25.6 128-58.181818 207.127273-58.181818 81.454545 0 148.945455 32.581818 193.163636 58.181818 32.581818 20.945455 55.854545 41.890909 67.49091 51.2l181.527272-74.472727-437.527272-221.090909-477.09091 218.763636 97.745455 41.890909z" fill="#0093E2" p-id="8065"></path><path d="M130.327273 458.472727v186.181818c11.636364 4.654545 20.945455 16.290909 20.945454 30.254546 0 13.963636-9.309091 25.6-23.272727 30.254545l23.272727 109.381819h-69.818182l23.272728-109.381819c-11.636364-4.654545-18.618182-16.290909-18.618182-30.254545 0-13.963636 6.981818-25.6 18.618182-30.254546v-197.818181" fill="#0093E2" p-id="8066"></path><path d="M507.345455 737.745455c-104.727273 0-188.509091 20.945455-188.509091 48.872727 0 25.6 83.781818 48.872727 188.509091 48.872727s188.509091-20.945455 188.50909-48.872727c0-27.927273-86.109091-48.872727-188.50909-48.872727zM695.854545 525.963636c-6.981818 0-13.963636 6.981818-13.963636 13.963637v151.272727c0 6.981818 6.981818 13.963636 13.963636 13.963636s13.963636-6.981818 13.963637-13.963636v-151.272727c0-6.981818-6.981818-13.963636-13.963637-13.963637z" fill="#FCFCFF" p-id="8067"></path><path d="M681.890909 737.745455a13.963636 13.963636 0 1 0 27.927273 0 13.963636 13.963636 0 1 0-27.927273 0Z" fill="#FCFCFF" p-id="8068"></path><path d="M153.6 432.872727l81.454545 34.909091c13.963636-9.309091 44.218182-30.254545 86.109091-51.2 51.2-25.6 128-58.181818 207.127273-58.181818 81.454545 0 148.945455 32.581818 193.163636 58.181818 32.581818 20.945455 55.854545 41.890909 67.49091 51.2l181.527272-74.472727-437.527272-221.090909-479.418182 218.763636 100.072727 41.890909" fill="#00BEF5" p-id="8069"></path></svg>