<?xml version="1.0" standalone="no"?><!DOCTYPE svg PUBLIC "-//W3C//DTD SVG 1.1//EN" "http://www.w3.org/Graphics/SVG/1.1/DTD/svg11.dtd"><svg t="1525529614826" class="icon" style="" viewBox="0 0 1041 1024" version="1.1" xmlns="http://www.w3.org/2000/svg" p-id="7473" xmlns:xlink="http://www.w3.org/1999/xlink" width="16.265625" height="16"><defs><style type="text/css"></style></defs><path d="M813.124267 211.968c0-41.5232-30.498133-75.434667-68.096-75.434667h-529.408c-37.546667 0-68.096 33.7408-68.096 75.349334v600.234666c0 41.745067 30.481067 75.349333 68.096 75.349334h529.408c37.546667 0 68.096-33.774933 68.096-75.434667v-99.0208a51.2 51.2 0 0 0-51.2 51.2v47.837867c0 14.4384-8.823467 24.2176-16.896 24.2176h-529.408c-8.157867 0-16.896-9.659733-16.896-24.149334v-600.234666c0-14.404267 8.823467-24.149333 16.896-24.149334h529.408c8.021333 0 16.896 9.8304 16.896 24.234667v121.856a51.2 51.2 0 0 0 51.2 51.2V211.968z" fill="#108EE9" p-id="7474"></path><path d="M284.0576 324.266667l375.466667 0 0 51.2-375.466667 0 0-51.2Z" fill="#108EE9" p-id="7475"></path><path d="M284.0576 477.866667l238.933333 0 0 51.2-238.933333 0 0-51.2Z" fill="#108EE9" p-id="7476"></path><path d="M284.0576 631.466667l238.933333 0 0 51.2-238.933333 0 0-51.2Z" fill="#108EE9" p-id="7477"></path><path d="M955.665067 425.147733L708.317867 632.712533l-46.813867 5.7344 13.8752-44.936533 247.381333-207.581867 32.904534 39.2192z m-10.1376-91.733333a25.6 25.6 0 0 0-36.061867-3.157333l-272.776533 228.864a25.6 25.6 0 0 0-8.004267 12.066133l-17.749333 57.463467c-11.042133 35.771733 14.250667 65.8432 51.336533 61.2864l59.818667-7.338667a25.6 25.6 0 0 0 13.329066-5.802667l272.776534-228.864a25.6 25.6 0 0 0 3.157333-36.078933l-65.826133-78.4384z" fill="#108EE9" p-id="7478"></path></svg>