<?xml version="1.0" standalone="no"?><!DOCTYPE svg PUBLIC "-//W3C//DTD SVG 1.1//EN" "http://www.w3.org/Graphics/SVG/1.1/DTD/svg11.dtd"><svg t="1525529698004" class="icon" style="" viewBox="0 0 1039 1024" version="1.1" xmlns="http://www.w3.org/2000/svg" p-id="9452" xmlns:xlink="http://www.w3.org/1999/xlink" width="16.234375" height="16"><defs><style type="text/css"></style></defs><path d="M1023.135306 861.096816c0-149.149948-89.344864-276.627295-215.718063-328.597947 61.220317-42.274826 101.526301-114.261347 101.526301-196.048071 0-111.63759-75.126025-205.090005-175.998433-229.384317-0.932232-0.2415-1.793856-0.103354-2.656503 0.206708-1.13894-0.103354-2.243087-0.344854-3.416819-0.344854-21.568225 0-39.029922 18.048051-39.029922 40.3418 0 20.119223 14.287401 36.648688 32.921807 39.684838 3.312442 1.381463 7.66047 2.450818 7.833409 2.51938 58.424644 20.49887 100.456946 77.577866 100.456946 144.870482 0 75.057463-52.281737 137.416719-121.265878 150.460804-0.103354 0-0.172939 0.171915-0.276293 0.2415-22.948665 1.483794-41.169655 21.016663-41.169655 45.104267 0 24.432459 18.773576 44.240597 42.205241 45.206598 0.138146 0.103354 0.310062 0.344854 0.448208 0.379647 138.727575 14.597463 237.044788 136.725988 237.044788 285.358143 0 22.017456 17.254989 39.824007 38.547944 39.824007 20.775162 0 37.58092-17.012466 38.408775-38.271652 0.034792-0.206708 0.138146-0.378623 0.138146-0.586354 0-0.068562-0.034792-0.138146-0.034792-0.240477l0 0C1023.135306 861.58084 1023.135306 861.33934 1023.135306 861.096816L1023.135306 861.096816 1023.135306 861.096816 1023.135306 861.096816 1023.135306 861.096816 1023.135306 861.096816 1023.135306 861.096816zM561.192376 539.124777c73.055876-50.626028 121.197316-136.65845 121.197316-234.423077 0-155.775856-122.163317-282.045701-272.865621-282.045701S136.657426 148.925844 136.657426 304.7017c0 97.764628 48.140417 183.79705 121.197316 234.423077C106.806561 601.414449 0 753.910609 0 932.256506c0 10.075473 0.551562 19.946284 1.277086 29.78128l0.069585 0c0 21.706371 17.047258 39.306214 38.029128 39.306214 21.015639 0 38.029128-17.599843 38.029128-39.306214 0-1.208525-0.2415-2.381234-0.345877-3.589758-0.724501-8.627495-1.345648-17.323551-1.345648-26.192545 0-190.527334 149.425218-344.991312 333.809645-344.991312 184.384427 0 333.844437 154.463977 333.844437 344.991312 0 9.213849-0.655939 18.254759-1.415232 27.227108-0.034792 0.448208-0.138146 0.89744-0.138146 1.345648 0 0.172939 0.033769 0.276293 0.033769 0.414439-0.033769 0.275269 0 0.551562-0.033769 0.794086l0.103354 0c0.655939 21.118993 17.324574 38.09769 37.926798 38.09769s37.269835-16.978696 37.890982-38.09769l0.104377 0c0.689708-9.836019 1.207501-19.739577 1.207501-29.747511C819.047118 753.910609 712.239534 601.414449 561.192376 539.124777L561.192376 539.124777 561.192376 539.124777 561.192376 539.124777zM409.523047 507.307118c-108.255563 0-196.013279-90.725304-196.013279-202.605418S301.267485 102.131075 409.523047 102.131075c108.256586 0 196.014302 90.690512 196.014302 202.570625S517.779633 507.307118 409.523047 507.307118L409.523047 507.307118 409.523047 507.307118 409.523047 507.307118z" p-id="9453" fill="#1296db"></path></svg>