<?xml version="1.0" standalone="no"?><!DOCTYPE svg PUBLIC "-//W3C//DTD SVG 1.1//EN" "http://www.w3.org/Graphics/SVG/1.1/DTD/svg11.dtd"><svg t="1525532077174" class="icon" style="" viewBox="0 0 1024 1024" version="1.1" xmlns="http://www.w3.org/2000/svg" p-id="9892" xmlns:xlink="http://www.w3.org/1999/xlink" width="16" height="16"><defs><style type="text/css"></style></defs><path d="M240 784c12.8 12.8 12.8 32 0 44.8-12.8 12.8-32 12.8-44.8 0C112 745.6 64 633.6 64 512s48-233.6 131.2-316.8c12.8-12.8 32-12.8 44.8 0 12.8 12.8 12.8 32 0 44.8C169.6 313.6 128 409.6 128 512s41.6 198.4 112 272z m160-160c12.8 12.8 12.8 32 0 44.8s-32 12.8-44.8 0C310.4 627.2 288 572.8 288 512s22.4-115.2 67.2-156.8c12.8-12.8 32-12.8 44.8 0 12.8 12.8 12.8 32 0 44.8-32 28.8-48 70.4-48 112s16 83.2 48 112z m390.4 160c70.4-70.4 112-169.6 112-272s-41.6-198.4-112-272c-12.8-12.8-12.8-32 0-44.8 12.8-12.8 32-12.8 44.8 0 83.2 83.2 131.2 195.2 131.2 316.8s-48 233.6-131.2 316.8c-12.8 12.8-32 12.8-44.8 0-12.8-12.8-12.8-32 0-44.8z m-160-160c28.8-28.8 48-70.4 48-112s-16-83.2-48-112c-12.8-12.8-12.8-32 0-44.8 12.8-12.8 32-12.8 44.8 0 41.6 41.6 67.2 99.2 67.2 156.8s-22.4 115.2-67.2 156.8c-12.8 12.8-32 12.8-44.8 0s-12.8-32 0-44.8zM512 544c-19.2 0-32-12.8-32-32s12.8-32 32-32 32 12.8 32 32-12.8 32-32 32z" p-id="9893"></path></svg>